# xmcd
#
# Track frame offsets:
#	150
#	13050
#	31276
#	45300
#	63075
#	80137
#	95925
#	112463
#	131925
#	145613
#	158737
#	175163
#
# Disc length: 2569 seconds
#
# Revision: 1
# Processed by: cddbd v1.5.2PL0 Copyright (c) Steve Scherf et al.
# Submitted via: audiograbber 1.83.01
#
DISCID=a60a070c
DTITLE=Claire Lynch - Whatcha Gonna Do
DYEAR=2009
DGENRE=Bluegrass
TTITLE0=Great Day in the Mornin'
TTITLE1=Highway
TTITLE2=The Mockingbird's Voice
TTITLE3=Face to Face
TTITLE4=That's What Makes You Strong (with Jesse Winchester)
TTITLE5=Whatcha Gonna Do
TTITLE6=Crazy Train
TTITLE7=A Canary's Song
TTITLE8=My Florida Sunshine
TTITLE9=Widow's Weeds
TTITLE10=Barbed Wire Boys
TTITLE11=Woods of Sipsey
EXTD=
EXTT0=
EXTT1=
EXTT2=
EXTT3=
EXTT4=
EXTT5=
EXTT6=
EXTT7=
EXTT8=
EXTT9=
EXTT10=
EXTT11=
PLAYORDER=
